<?xml version="1.0" standalone="no"?>
<!DOCTYPE svg PUBLIC "-//W3C//DTD SVG 20010904//EN"
 "http://www.w3.org/TR/2001/REC-SVG-20010904/DTD/svg10.dtd">
<svg version="1.0" xmlns="http://www.w3.org/2000/svg"
 width="137.000000pt" height="137.000000pt" viewBox="0 0 137.000000 137.000000"
 preserveAspectRatio="xMidYMid meet">
<metadata>
Created by potrace 1.14, written by Peter Selinger 2001-2017
</metadata>
<g transform="translate(0.000000,137.000000) scale(0.100000,-0.100000)"
fill="#000000" stroke="none">
<path d="M20 1362 c-7 -3 -10 -238 -10 -680 l0 -677 672 1 c370 1 676 2 679 3
3 0 5 306 5 678 l-1 677 -668 0 c-367 1 -672 0 -677 -2z m1301 -52 c0 -5 1
-287 1 -625 0 -338 -1 -619 -1 -625 -1 -7 -220 -10 -636 -10 l-635 0 0 635 0
635 635 0 c416 0 635 -3 636 -10z"/>
<path d="M713 992 c-91 -2 -113 -5 -113 -17 0 -10 10 -15 28 -15 15 0 33 -4
40 -9 18 -11 4 -56 -80 -266 -36 -88 -68 -169 -72 -180 -6 -15 -28 31 -92 191
-104 266 -104 264 -70 265 45 2 49 4 54 17 3 9 -25 12 -118 12 -93 0 -121 -3
-118 -12 3 -7 16 -14 31 -16 24 -3 34 -24 143 -298 105 -262 120 -294 140
-294 17 0 25 9 34 38 24 72 153 382 160 382 10 0 5 -369 -6 -380 -5 -5 -22
-11 -38 -13 -17 -2 -32 -9 -34 -15 -3 -9 32 -12 128 -12 101 0 131 3 128 13
-3 6 -20 13 -38 14 -18 1 -37 7 -41 15 -5 7 -9 129 -9 271 l0 257 27 11 c35
13 101 14 134 1 40 -16 65 -54 67 -103 4 -82 -53 -138 -146 -143 -26 -1 -46
-7 -44 -12 1 -5 24 -36 50 -69 26 -33 79 -104 117 -157 l70 -97 57 -1 c57 0
88 17 49 27 -12 3 -67 67 -126 146 l-105 140 37 13 c87 30 128 83 128 164 0
48 -4 63 -24 84 -44 47 -99 54 -348 48z"/>
</g>
</svg>
